<?xml version="1.0" encoding="UTF-8" standalone="no"?>
<svg
   width="500"
   height="500"
   viewBox="0 0 500 500.00001"
   version="1.1"
   id="svg10"
   sodipodi:docname="python3-libdatovka.svg"
   inkscape:version="1.4 (e7c3feb100, 2024-10-09)"
   xml:space="preserve"
   xmlns:inkscape="http://www.inkscape.org/namespaces/inkscape"
   xmlns:sodipodi="http://sodipodi.sourceforge.net/DTD/sodipodi-0.dtd"
   xmlns="http://www.w3.org/2000/svg"
   xmlns:svg="http://www.w3.org/2000/svg"><defs
     id="defs10" /><sodipodi:namedview
     id="namedview10"
     pagecolor="#ffffff"
     bordercolor="#000000"
     borderopacity="0.25"
     inkscape:showpageshadow="2"
     inkscape:pageopacity="0.0"
     inkscape:pagecheckerboard="0"
     inkscape:deskcolor="#d1d1d1"
     inkscape:zoom="0.48430851"
     inkscape:cx="-43.360791"
     inkscape:cy="-242.61395"
     inkscape:window-width="1920"
     inkscape:window-height="1120"
     inkscape:window-x="0"
     inkscape:window-y="0"
     inkscape:window-maximized="1"
     inkscape:current-layer="svg10" /><g
     id="g10"
     transform="matrix(1.0628417,0,0,1.0628417,-68.852519,-68.852519)"><g
       inkscape:label="Capa 1"
       id="layer1"
       style="display:inline"><path
         d="M 300,190 H 120 c 0,0 -50,0 -50,110 0,110 50,110 50,110 h 50 c 0,0 0,-10 0,-50 0,-40 30,-70 70,-70 40,0 89.86755,0 119.93377,0 C 390,290 410,270 410.41391,239.51987 410.82781,209.03974 410,120 410,120 c 0,0 0,-50 -110,-50 -110,0 -110,50 -110,50 v 50 h 110 z"
         id="path101"
         inkscape:connector-curvature="0"
         style="fill:#387eb8;fill-opacity:1" /><path
         d="m 300,410 h 180 c 0,0 50,0 50,-110 0,-110 -50,-110 -50,-110 h -50 c 0,0 0,10 0,50 0,40 -30,70 -70,70 -40,0 -90,0 -120,0 -30,0 -50,20 -50,50 0,30 0,120 0,120 0,0 0,50 110,50 110,0 110,-50 110,-50 V 430 H 300 Z"
         id="path102"
         inkscape:connector-curvature="0"
         style="fill:#ffc331;fill-opacity:1" /><circle
         id="path103"
         cx="240"
         cy="120"
         r="20"
         style="fill:#ffffff;fill-opacity:1" /><circle
         id="path104"
         cx="360"
         cy="480"
         r="20"
         style="fill:#ffffff;fill-opacity:1" /></g><g
       id="layer2"
       inkscape:label="Capa 2"
       style="display:none"><path
         d="m 120,180 c 0,0 -60,0 -60,120 0,120 60,120 60,120 h 60 c 0,0 0,-30 0,-60 0,-30 20,-60 60,-60 0,0 80,0 120,0 40,0 59.58609,-29.51987 60,-60 0.4139,-30.48013 0,-120 0,-120 0,0 0.99338,-58.940394 -120,-59.999997 C 179.00662,58.9404 180,120 180,120 v 60 z"
         id="path201"
         inkscape:connector-curvature="0"
         style="display:inline;fill:#387eb8;fill-opacity:1" /><path
         d="m 480,420 c 0,0 61.79181,-12.05638 60.92715,-122.05298 C 540,180 480,180 480,180 h -60 v 60 c 0,30 -20,60 -60,60 0,0 -80,0 -120,0 -40,0 -60,30 -60,60 0,30 0,120 0,120 0,0 10.00007,59.74614 120,59.86755 C 420,540 420,480 420,480 v -60 z"
         id="path202"
         inkscape:connector-curvature="0"
         style="display:inline;fill:#ffc331;fill-opacity:1" /></g><g
       id="layer3"
       inkscape:label="Capa 3"
       style="display:none"><path
         style="fill:none;fill-rule:evenodd;stroke:#00ff00;stroke-width:20;stroke-linecap:butt;stroke-linejoin:miter;stroke-miterlimit:4;stroke-dasharray:none;stroke-opacity:1"
         d="m 180,180 v -60 c 0,0 0,-60 120,-60 120,0 120,60 120,60 0,0 0,80 0,120 0,40 -30,60 -60,60 -30,0 -90,0 -120,0 -30,0 -60,20 -60,60 0,40 0,120 0,120 0,0 0,60 120,60 120,0 120,-60 120,-60 v -60"
         id="path301"
         inkscape:connector-curvature="0" /><path
         style="fill:none;fill-rule:evenodd;stroke:#00ff00;stroke-width:20;stroke-linecap:butt;stroke-linejoin:miter;stroke-miterlimit:4;stroke-dasharray:none;stroke-opacity:1"
         d="M 300,180 H 120 c 0,0 -60,0 -60,120 0,120 60,120 60,120 h 60"
         id="path302"
         inkscape:connector-curvature="0" /><path
         style="fill:none;fill-rule:evenodd;stroke:#00fe00;stroke-width:20;stroke-linecap:butt;stroke-linejoin:miter;stroke-miterlimit:4;stroke-dasharray:none;stroke-opacity:1"
         d="m 420,180 h 60 c 0,0 60,0 60,120 0,120 -60,120 -60,120 H 300"
         id="path303"
         inkscape:connector-curvature="0" /><circle
         style="opacity:1;fill:#00ff00;fill-opacity:1;stroke:none;stroke-width:20;stroke-linecap:round;stroke-linejoin:round;stroke-miterlimit:4;stroke-dasharray:none;stroke-opacity:1"
         id="path304"
         cx="240"
         cy="120"
         r="20" /><circle
         style="opacity:1;fill:#00ff00;fill-opacity:1;stroke:none;stroke-width:20;stroke-linecap:round;stroke-linejoin:round;stroke-miterlimit:4;stroke-dasharray:none;stroke-opacity:1"
         id="path305"
         cx="360"
         cy="480"
         r="20" /></g><g
       id="layer4"
       inkscape:label="Capa 4"
       style="display:none"><path
         d="M 30,60 H 570"
         id="path401"
         inkscape:connector-curvature="0"
         style="stroke:#000000;stroke-width:0.6;stroke-miterlimit:4;stroke-dasharray:none;stroke-opacity:1" /><path
         d="M 150,120 H 450"
         id="path402"
         inkscape:connector-curvature="0"
         style="stroke:#000000;stroke-width:0.6;stroke-miterlimit:4;stroke-dasharray:none;stroke-opacity:1" /><path
         d="M 30,180 H 570"
         id="path403"
         inkscape:connector-curvature="0"
         style="stroke:#000000;stroke-width:0.6;stroke-miterlimit:4;stroke-dasharray:none;stroke-opacity:1" /><path
         d="M 330,240 H 450"
         id="path404"
         inkscape:connector-curvature="0"
         style="display:inline;stroke:#000000;stroke-width:0.6;stroke-miterlimit:4;stroke-dasharray:none;stroke-opacity:1" /><path
         d="M 30,300 H 570"
         id="path405"
         inkscape:connector-curvature="0"
         style="stroke:#000000;stroke-width:0.6;stroke-miterlimit:4;stroke-dasharray:none;stroke-opacity:1" /><path
         d="M 150,360 H 270"
         id="path406"
         inkscape:connector-curvature="0"
         style="display:inline;stroke:#000000;stroke-width:0.6;stroke-miterlimit:4;stroke-dasharray:none;stroke-opacity:1" /><path
         d="M 30,420 H 570"
         id="path407"
         inkscape:connector-curvature="0"
         style="stroke:#000000;stroke-width:0.6;stroke-miterlimit:4;stroke-dasharray:none;stroke-opacity:1" /><path
         d="M 150,480 H 450"
         id="path408"
         inkscape:connector-curvature="0"
         style="stroke:#000000;stroke-width:0.6;stroke-miterlimit:4;stroke-dasharray:none;stroke-opacity:1" /><path
         d="M 30,540 H 570"
         id="path409"
         inkscape:connector-curvature="0"
         style="stroke:#000000;stroke-width:0.6;stroke-miterlimit:4;stroke-dasharray:none;stroke-opacity:1" /><path
         d="M 60,30 V 570"
         id="path410"
         inkscape:connector-curvature="0"
         style="stroke:#000000;stroke-width:0.6;stroke-miterlimit:4;stroke-dasharray:none;stroke-opacity:1" /><path
         d="M 120,450 V 150"
         id="path411"
         inkscape:connector-curvature="0"
         style="stroke:#000000;stroke-width:0.6;stroke-miterlimit:4;stroke-dasharray:none;stroke-opacity:1" /><path
         d="M 180,30 V 570"
         id="path412"
         inkscape:connector-curvature="0"
         style="stroke:#000000;stroke-width:0.6;stroke-miterlimit:4;stroke-dasharray:none;stroke-opacity:1" /><path
         d="M 240,30 V 210"
         id="path413"
         inkscape:connector-curvature="0"
         style="stroke:#000000;stroke-width:0.6;stroke-miterlimit:4;stroke-dasharray:none;stroke-opacity:1" /><path
         d="M 240,270 V 390"
         id="path414"
         inkscape:connector-curvature="0"
         style="display:inline;stroke:#000000;stroke-width:0.6;stroke-miterlimit:4;stroke-dasharray:none;stroke-opacity:1" /><path
         d="M 300,30 V 570"
         id="path415"
         inkscape:connector-curvature="0"
         style="stroke:#000000;stroke-width:0.6;stroke-miterlimit:4;stroke-dasharray:none;stroke-opacity:1" /><path
         d="M 360,210 V 330"
         id="path416"
         inkscape:connector-curvature="0"
         style="display:inline;stroke:#000000;stroke-width:0.6;stroke-miterlimit:4;stroke-dasharray:none;stroke-opacity:1" /><path
         d="M 360,390 V 570"
         id="path417"
         inkscape:connector-curvature="0"
         style="stroke:#000000;stroke-width:0.6;stroke-miterlimit:4;stroke-dasharray:none;stroke-opacity:1" /><path
         d="M 420,30 V 570"
         id="path418"
         inkscape:connector-curvature="0"
         style="stroke:#000000;stroke-width:0.6;stroke-miterlimit:4;stroke-dasharray:none;stroke-opacity:1" /><path
         d="M 480,450 V 150"
         id="path419"
         inkscape:connector-curvature="0"
         style="stroke:#000000;stroke-width:0.6;stroke-miterlimit:4;stroke-dasharray:none;stroke-opacity:1" /><path
         d="M 540,30 V 570"
         id="path420"
         inkscape:connector-curvature="0"
         style="stroke:#000000;stroke-width:0.6;stroke-miterlimit:4;stroke-dasharray:none;stroke-opacity:1" /></g></g><path
     style="fill:#003591;fill-opacity:0.7971698;fill-rule:nonzero;stroke:none;stroke-width:5.28465"
     d="M 425.16918,165.57981 C 417.05642,142.0879 404.11316,123.01363 386.31876,108.33634 368.545,93.659058 346.95226,83.048479 321.58182,76.483953 296.21139,69.919426 268.81791,66.637163 239.48399,66.637163 H 118.26738 L 102.18636,181.72276 h 120.59731 l 8.42242,-59.92708 125.96453,128.21465 -161.92492,128.21463 8.40177,-59.92708 H 83.070797 L 66.989775,433.36284 H 199.08533 c 27.26961,0 53.94057,-3.96349 80.01288,-11.89047 26.0723,-7.94761 49.64679,-19.61099 70.72345,-34.96949 21.03538,-15.37916 38.7472,-34.37086 53.07356,-56.97512 14.32635,-22.6249 23.57448,-48.77978 27.72376,-78.48528 4.47955,-33.4832 2.66296,-61.9914 -5.42916,-85.46266 z m 0,0"
     id="path10" /></svg>
